# xmcd
#
# Track frame offsets:
#	150
#	11202
#	28837
#	44202
#	72112
#
# Disc length: 1168 seconds
#
# Revision: 1
# Processed by: cddbd v1.5.1PL0 Copyright (c) Steve Scherf et al.
# Submitted via: CDex 1.50Beta5
#
DISCID=45048e05
DTITLE=将番頭 - ニューホライズン
DYEAR=2001
DGENRE=Rock
TTITLE0=夢は何処に置いてきたんだ!
TTITLE1=When You?(meet some walls)
TTITLE2=ロブスター・デ・ジャブ
TTITLE3=RiDE THE SET
TTITLE4=“OBJECTiON” BBC REMiX
EXTD=
EXTT0=
EXTT1=
EXTT2=
EXTT3=
EXTT4=
PLAYORDER=
